<?xml version="1.0" standalone="no"?>
<!DOCTYPE svg PUBLIC "-//W3C//DTD SVG 20010904//EN"
 "http://www.w3.org/TR/2001/REC-SVG-20010904/DTD/svg10.dtd">
<svg version="1.0" xmlns="http://www.w3.org/2000/svg"
 width="3200.000000pt" height="3200.000000pt" viewBox="0 0 3200.000000 3200.000000"
 preserveAspectRatio="xMidYMid meet">
<metadata>
Created by potrace 1.14, written by Peter Selinger 2001-2017
</metadata>
<g transform="translate(0.000000,3200.000000) scale(0.100000,-0.100000)"
fill="#000000" stroke="none">
<path d="M0 16000 l0 -16000 16000 0 16000 0 0 16000 0 16000 -16000 0 -16000
0 0 -16000z m11019 7890 c250 -43 469 -115 716 -234 228 -111 415 -230 632
-404 l93 -74 232 116 c317 157 668 301 871 356 279 77 626 78 943 3 63 -15
114 -31 114 -36 0 -10 -159 -499 -164 -504 -1 -2 -43 6 -92 16 -265 58 -509
50 -730 -24 -154 -51 -411 -158 -582 -240 l-173 -84 148 -169 c485 -551 876
-1096 1848 -2575 125 -191 231 -344 235 -340 4 4 234 477 510 1051 277 573
507 1042 511 1042 16 0 508 -200 712 -290 114 -50 308 -138 430 -195 173 -82
224 -102 233 -92 6 6 302 571 658 1253 l648 1242 46 6 c569 78 990 119 1502
146 250 13 848 13 1055 0 558 -35 974 -123 1264 -270 364 -183 531 -438 531
-810 0 -409 -252 -708 -720 -854 -116 -36 -320 -76 -390 -76 l-37 0 -7 128
c-3 70 -9 190 -12 267 l-6 141 84 12 c215 31 391 103 475 196 62 67 78 118 70
220 -6 89 -29 136 -94 197 -340 317 -1549 406 -3142 229 -145 -16 -265 -31
-266 -32 -5 -5 -1164 -2225 -1171 -2241 -4 -11 31 -34 133 -87 1050 -553 2012
-1185 2721 -1787 l82 -70 138 69 c915 455 1968 658 3002 577 1307 -102 2547
-655 3500 -1563 1315 -1252 1957 -3017 1754 -4821 -169 -1500 -940 -2888
-2134 -3840 -831 -662 -1839 -1084 -2890 -1209 -316 -38 -788 -49 -1100 -26
-1591 116 -3056 887 -4066 2140 -634 786 -1059 1761 -1203 2760 -45 309 -55
462 -55 830 0 372 11 548 55 840 63 418 176 851 321 1223 45 117 52 128 72
123 11 -3 122 -48 246 -100 183 -76 225 -97 224 -112 -1 -11 -25 -80 -54 -154
-268 -696 -376 -1516 -304 -2300 99 -1079 530 -2090 1246 -2920 800 -927 1914
-1548 3123 -1739 342 -54 821 -75 1160 -52 1798 125 3384 1152 4243 2746 318
592 513 1234 589 1945 21 203 24 755 5 955 -93 950 -410 1808 -947 2560 -841
1179 -2137 1961 -3555 2144 -420 54 -864 58 -1290 11 -513 -58 -1088 -219
-1563 -439 l-89 -41 156 -162 c585 -613 974 -1216 1180 -1830 144 -425 200
-1022 141 -1473 -101 -761 -489 -1239 -1116 -1373 -368 -79 -707 -37 -1054
133 -603 293 -1113 974 -1351 1800 -158 545 -168 1150 -28 1627 58 200 163
428 271 591 71 105 165 226 177 227 5 0 47 -35 95 -77 89 -80 87 -72 -11 35
-32 34 -58 66 -57 70 2 20 320 279 519 420 80 57 146 107 147 111 3 8 -255
213 -462 368 -576 431 -1325 897 -2084 1297 -107 56 -147 73 -153 63 -4 -6
-368 -703 -809 -1547 -441 -844 -817 -1563 -836 -1598 l-35 -62 -425 652
c-234 359 -430 658 -437 665 -8 9 -176 -330 -704 -1423 l-692 -1435 74 -152
c229 -469 326 -951 326 -1622 -1 -1230 -398 -2427 -1133 -3415 -1003 -1349
-2528 -2188 -4197 -2310 -189 -14 -657 -14 -835 0 -911 71 -1759 340 -2526
800 -1479 888 -2485 2387 -2738 4080 -47 318 -56 448 -56 850 0 412 9 538 61
880 239 1566 1137 2981 2464 3882 1292 876 2880 1184 4425 857 688 -145 1349
-424 1952 -822 l182 -120 -21 -31 c-59 -83 -281 -392 -289 -400 -5 -6 -50 19
-111 61 -659 451 -1437 747 -2240 853 -459 60 -986 56 -1441 -10 -1304 -191
-2510 -890 -3329 -1930 -863 -1097 -1249 -2478 -1077 -3860 136 -1095 618
-2120 1374 -2920 1155 -1222 2782 -1808 4445 -1600 890 111 1740 456 2466
1001 384 289 763 670 1057 1063 716 961 1086 2182 1018 3366 -21 358 -72 636
-163 877 l-20 54 -97 -143 c-495 -731 -1075 -1317 -1641 -1658 -143 -86 -414
-216 -592 -284 -530 -202 -1053 -264 -1467 -175 -586 127 -1000 519 -1213
1149 -265 782 -14 1665 667 2345 455 456 1027 750 1605 827 124 16 544 16 685
0 432 -51 801 -162 1178 -354 274 -140 501 -303 724 -521 l122 -120 54 114
c30 63 345 716 701 1453 355 736 643 1343 639 1350 -18 32 -634 968 -898 1366
-586 883 -1051 1500 -1451 1924 l-94 100 -178 -87 c-395 -192 -669 -272 -1065
-308 -160 -15 -490 -6 -606 15 -504 94 -832 353 -922 731 -28 116 -23 283 11
390 112 352 422 588 856 650 135 20 381 13 543 -15z"/>
<path d="M10551 23369 c-364 -47 -535 -316 -331 -520 142 -143 392 -209 740
-196 252 10 444 43 650 112 119 40 320 125 320 135 0 11 -191 138 -305 203
-358 202 -774 305 -1074 266z"/>
<path d="M16357 21028 c-19 -40 -229 -475 -466 -967 -238 -492 -433 -898 -434
-901 -3 -10 533 -830 541 -830 8 1 1235 2350 1240 2372 3 15 -12 23 -273 145
-167 78 -560 253 -569 253 -2 0 -19 -33 -39 -72z"/>
<path d="M20709 18257 c-221 -151 -461 -340 -570 -448 -31 -31 -86 -101 -122
-155 -153 -231 -245 -500 -278 -814 -15 -141 -6 -443 16 -590 92 -599 354
-1148 730 -1526 133 -133 255 -225 395 -297 183 -95 311 -128 490 -128 594 1
911 381 939 1126 7 199 -1 391 -23 565 -44 332 -107 536 -272 870 -175 356
-382 658 -698 1020 -125 143 -446 470 -460 469 -6 0 -72 -42 -147 -92z"/>
<path d="M10870 16669 c-870 -59 -1765 -832 -1950 -1684 -70 -324 -30 -655
115 -962 165 -350 411 -547 772 -619 123 -25 399 -25 548 0 298 48 655 170
940 319 288 152 531 335 824 622 349 341 684 767 975 1237 l64 105 -46 59
c-74 95 -239 260 -347 347 -413 333 -951 536 -1535 577 -159 11 -191 11 -360
-1z"/>
</g>
</svg>
